# xmcd
#
# Track frame offsets:
#	150
#	9584
#	26449
#	41552
#	62102
#	73687
#
# Disc length: 1205 seconds
#
# Revision: 1
# Processed by: cddbd v1.5.2PL0 Copyright (c) Steve Scherf et al.
# Submitted via: audiograbber 1.83.01
#
DISCID=4904b306
DTITLE=Zombie Zoo - Hard Blues Band
DYEAR=2009
DGENRE=Blues
TTITLE0=Blue Suede Shoes (Carl Perkins)
TTITLE1=Hoochie Coochie Man (Willie Dixon)
TTITLE2=Love Me Two Times (The Doors)
TTITLE3=The Spy (The Doors)
TTITLE4=Why Don't We Do It In The Road? (The Beatles)
TTITLE5=I've Got A Feeling (The Beatles)
EXTD=Mastering - Slavomir Stelmachenok
EXTT0=
EXTT1=
EXTT2=
EXTT3=
EXTT4=
EXTT5=
PLAYORDER=
